<svg width="4048" height="1894" xmlns="http://www.w3.org/2000/svg" xmlns:xlink="http://www.w3.org/1999/xlink" xml:space="preserve" overflow="hidden"><g transform="translate(-534 -538)"><rect x="550" y="543" width="1818" height="1884" stroke="#000000" stroke-width="10.3125" stroke-miterlimit="8" stroke-dasharray="41.25 30.9375" fill="none"/><text font-family="Arial,Arial_MSFontService,sans-serif" font-weight="700" font-size="101" transform="matrix(1 0 0 1 595.343 685)">NDP Simulator</text><rect x="3668" y="543" width="909" height="1884" stroke="#000000" stroke-width="10.3125" stroke-miterlimit="8" stroke-dasharray="41.25 30.9375" fill="none"/><text font-family="Arial,Arial_MSFontService,sans-serif" font-weight="700" font-size="101" transform="matrix(1 0 0 1 3713.45 685)">PIM Simulator </text><rect x="2109" y="996" width="195" height="1366" stroke="#000000" stroke-width="10.3125" stroke-miterlimit="8" fill="none"/><text font-family="Arial,Arial_MSFontService,sans-serif" font-weight="400" font-size="83" transform="matrix(-1.83697e-16 -1 1 -1.83697e-16 2236.66 2107)">PIM Simulator Wrapper</text><rect x="3733" y="734" width="779" height="195" stroke="#000000" stroke-width="10.3125" stroke-miterlimit="8" fill="none"/><text font-family="Arial,Arial_MSFontService,sans-serif" font-weight="400" font-size="83" transform="matrix(1 0 0 1 3957.34 862)">Frontend</text><rect x="3733" y="994" width="779" height="195" stroke="#000000" stroke-width="10.3125" stroke-miterlimit="8" fill="none"/><text font-family="Arial,Arial_MSFontService,sans-serif" font-weight="400" font-size="83" transform="matrix(1 0 0 1 3824.43 1122)">Memory System</text><rect x="614" y="735" width="1690" height="194" stroke="#000000" stroke-width="10.3125" stroke-miterlimit="8" fill="none"/><text font-family="Arial,Arial_MSFontService,sans-serif" font-weight="400" font-size="83" transform="matrix(1 0 0 1 1290.99 863)">TinyEMU</text><rect x="680" y="1125" width="1299" height="130" stroke="#000000" stroke-width="10.3125" stroke-miterlimit="8" fill="none"/><text font-family="Arial,Arial_MSFontService,sans-serif" font-weight="400" font-size="83" transform="matrix(1 0 0 1 866.197 1221)">Instruction Decode Stage</text><rect x="680" y="1320" width="1299" height="130" stroke="#000000" stroke-width="10.3125" stroke-miterlimit="8" fill="none"/><text font-family="Arial,Arial_MSFontService,sans-serif" font-weight="400" font-size="83" transform="matrix(1 0 0 1 1040.36 1415)">Load</text><text font-family="Arial,Arial_MSFontService,sans-serif" font-weight="400" font-size="83" transform="matrix(1 0 0 1 1223.7 1415)">-</text><text font-family="Arial,Arial_MSFontService,sans-serif" font-weight="400" font-size="83" transform="matrix(1 0 0 1 1251.2 1415)">Store Unit</text><path d="M3562 1598.25C3562 1607.23 3554.72 1614.5 3545.75 1614.5L3545.75 1598.25C3545.75 1602.74 3542.11 1606.38 3537.62 1606.38 3533.14 1606.38 3529.5 1602.74 3529.5 1598.25L3529.5 1614.5 2538.25 1614.5C2529.28 1614.5 2522 1621.78 2522 1630.75L2522 1825.75C2522 1834.73 2529.28 1842 2538.25 1842 2547.23 1842 2554.5 1834.73 2554.5 1825.75L2554.5 1809.5 3545.75 1809.5C3554.73 1809.5 3562 1802.22 3562 1793.25ZM2538.25 1647C2547.23 1647 2554.5 1639.72 2554.5 1630.75 2554.5 1626.26 2550.86 1622.62 2546.38 1622.62 2541.89 1622.62 2538.25 1626.26 2538.25 1630.75Z" fill="#E8E8E8" fill-rule="evenodd"/><path d="M2538.25 1647C2547.23 1647 2554.5 1639.72 2554.5 1630.75 2554.5 1626.26 2550.86 1622.62 2546.38 1622.62 2541.89 1622.62 2538.25 1626.26 2538.25 1630.75ZM3545.75 1614.5C3554.73 1614.5 3562 1607.22 3562 1598.25 3562 1589.27 3554.73 1582 3545.75 1582 3536.78 1582 3529.5 1589.27 3529.5 1598.25 3529.5 1602.74 3533.14 1606.37 3537.62 1606.37 3542.11 1606.37 3545.75 1602.74 3545.75 1598.25Z" fill="#BBBBBB" fill-rule="evenodd"/><path d="M2522 1630.75C2522 1621.78 2529.28 1614.5 2538.25 1614.5L3529.5 1614.5 3529.5 1598.25C3529.5 1589.28 3536.78 1582 3545.75 1582 3554.73 1582 3562 1589.28 3562 1598.25L3562 1793.25C3562 1802.23 3554.72 1809.5 3545.75 1809.5L2554.5 1809.5 2554.5 1825.75C2554.5 1834.73 2547.22 1842 2538.25 1842 2529.27 1842 2522 1834.73 2522 1825.75ZM3529.5 1614.5 3545.75 1614.5C3554.73 1614.5 3562 1607.22 3562 1598.25M3545.75 1614.5 3545.75 1598.25C3545.75 1602.74 3542.11 1606.38 3537.62 1606.38 3533.14 1606.38 3529.5 1602.74 3529.5 1598.25M2538.25 1647 2538.25 1630.75C2538.25 1626.26 2541.89 1622.63 2546.38 1622.63 2550.86 1622.63 2554.5 1626.26 2554.5 1630.75 2554.5 1639.73 2547.23 1647 2538.25 1647 2529.28 1647 2522 1639.73 2522 1630.75M2554.5 1630.75 2554.5 1809.5" stroke="#000000" stroke-width="10.3125" stroke-miterlimit="8" fill="none" fill-rule="evenodd"/><text font-family="Arial,Arial_MSFontService,sans-serif" font-weight="400" font-size="83" transform="matrix(1 0 0 1 2624.56 1743)">NDP Simulation Output</text><path d="M2434 702 2824 702 2824 910.506C2629 910.506 2629 989.95 2434 944.811Z" stroke="#000000" stroke-width="10.3125" stroke-miterlimit="8" fill="#E8E8E8" fill-rule="evenodd"/><text font-family="Arial,Arial_MSFontService,sans-serif" font-weight="400" font-size="83" transform="matrix(1 0 0 1 2479.87 787)">Memory</text><text font-family="Arial,Arial_MSFontService,sans-serif" font-weight="400" font-size="83" transform="matrix(1 0 0 1 2466.12 886)">Manager</text><path d="M2888 702 3278 702 3278 910.506C3083 910.506 3083 989.95 2888 944.811Z" stroke="#000000" stroke-width="10.3125" stroke-miterlimit="8" fill="#E8E8E8" fill-rule="evenodd"/><text font-family="Arial,Arial_MSFontService,sans-serif" font-weight="400" font-size="83" transform="matrix(1 0 0 1 2902.08 837)">Operation</text><text font-family="Arial,Arial_MSFontService,sans-serif" font-weight="400" font-size="83" transform="matrix(1 0 0 1 2651.88 663)">PIM Kernel</text><rect x="679" y="1709" width="520" height="130" stroke="#000000" stroke-width="10.3125" stroke-miterlimit="8" fill="none"/><text font-family="Arial,Arial_MSFontService,sans-serif" font-weight="400" font-size="83" transform="matrix(1 0 0 1 705.477 1805)">L1/L2 Cache</text><rect x="679" y="1906" width="1300" height="130" stroke="#000000" stroke-width="10.3125" stroke-miterlimit="8" fill="none"/><text font-family="Arial,Arial_MSFontService,sans-serif" font-weight="400" font-size="83" transform="matrix(1 0 0 1 989.827 2001)">Memory Controller</text><rect x="614" y="2167" width="1430" height="195" stroke="#000000" stroke-width="10.3125" stroke-miterlimit="8" fill="none"/><text font-family="Arial,Arial_MSFontService,sans-serif" font-weight="400" font-size="83" transform="matrix(1 0 0 1 1135.14 2295)">PIM Buffer</text><path d="M0.012906-10.3125 78.7932-10.2139 78.7674 10.4111-0.012906 10.3125ZM68.5065-30.8518 130.343 0.163123 68.4291 31.0232Z" fill="#0070C0" transform="matrix(-1 0 0 1 2434.84 832.5)"/><path d="M1465.87 929 1465.88 1089.51 1452.13 1089.51 1452.12 929ZM1479.63 1082.63 1459 1123.88 1438.38 1082.63Z" fill="#0070C0"/><path d="M1465.87 1255 1465.88 1285.57 1452.12 1285.57 1452.12 1255ZM1479.62 1278.69 1459 1319.94 1438.38 1278.69Z" fill="#0070C0"/><path d="M1465.87 1450 1465.88 1870.35 1452.13 1870.35 1452.12 1450ZM1479.63 1863.47 1459 1904.72 1438.38 1863.47Z" fill="#0070C0"/><path d="M0.00560631-6.875 95.7435-6.79693 95.7323 6.95307-0.00560631 6.875ZM88.8797-20.5525 130.113 0.106102 88.8461 20.6975Z" fill="#0070C0" transform="matrix(1 0 0 -1 1979 1971.11)"/><rect x="614" y="1582" width="1430" height="520" stroke="#000000" stroke-width="10.3125" stroke-miterlimit="8" fill="none"/><text font-family="Arial,Arial_MSFontService,sans-serif" font-weight="400" font-size="83" transform="matrix(1 0 0 1 992.315 1675)">Memory Hierarchy</text><rect x="614" y="996" width="1430" height="520" stroke="#000000" stroke-width="10.3125" stroke-miterlimit="8" fill="none"/><text font-family="Arial,Arial_MSFontService,sans-serif" font-weight="400" font-size="83" transform="matrix(1 0 0 1 1003.77 1088)">Out</text><text font-family="Arial,Arial_MSFontService,sans-serif" font-weight="400" font-size="83" transform="matrix(1 0 0 1 1136.69 1088)">-</text><text font-family="Arial,Arial_MSFontService,sans-serif" font-weight="400" font-size="83" transform="matrix(1 0 0 1 1164.19 1088)">of</text><text font-family="Arial,Arial_MSFontService,sans-serif" font-weight="400" font-size="83" transform="matrix(1 0 0 1 1232.94 1088)">-</text><text font-family="Arial,Arial_MSFontService,sans-serif" font-weight="400" font-size="83" transform="matrix(1 0 0 1 1260.44 1088)">order Core</text><rect x="3733" y="1254" width="779" height="195" stroke="#000000" stroke-width="10.3125" stroke-miterlimit="8" fill="none"/><text font-family="Arial,Arial_MSFontService,sans-serif" font-weight="400" font-size="83" transform="matrix(1 0 0 1 3783.28 1382)">Memory Controller</text><rect x="3738" y="1843" width="195" height="520" stroke="#000000" stroke-width="10.3125" stroke-miterlimit="8" fill="none"/><text font-family="Arial,Arial_MSFontService,sans-serif" font-weight="400" font-size="83" transform="matrix(-1.83697e-16 -1 1 -1.83697e-16 3865.71 2332)">GDDR6 PIM</text><path d="M3.82844e-05-6.875 30.433-6.87483 30.4329 6.87517-3.82844e-05 6.875ZM23.5581-20.6249 64.808 0.000360892 23.5579 20.6251Z" fill="#0070C0" transform="matrix(-1 0 0 1 2108.81 2264)"/><path d="M3561 1863.25C3561 1872.22 3553.72 1879.5 3544.75 1879.5L3544.75 1863.25C3544.75 1867.74 3541.11 1871.38 3536.62 1871.38 3532.14 1871.38 3528.5 1867.74 3528.5 1863.25L3528.5 1879.5 2538.25 1879.5C2529.28 1879.5 2522 1886.77 2522 1895.75L2522 2090.75C2522 2099.72 2529.28 2107 2538.25 2107 2547.22 2107 2554.5 2099.72 2554.5 2090.75L2554.5 2074.5 3544.75 2074.5C3553.72 2074.5 3561 2067.23 3561 2058.25ZM2538.25 1912C2547.22 1912 2554.5 1904.72 2554.5 1895.75 2554.5 1891.26 2550.86 1887.62 2546.37 1887.62 2541.89 1887.62 2538.25 1891.26 2538.25 1895.75Z" fill="#E8E8E8" fill-rule="evenodd"/><path d="M2538.25 1912C2547.22 1912 2554.5 1904.72 2554.5 1895.75 2554.5 1891.26 2550.86 1887.62 2546.37 1887.62 2541.89 1887.62 2538.25 1891.26 2538.25 1895.75ZM3544.75 1879.5C3553.72 1879.5 3561 1872.22 3561 1863.25 3561 1854.28 3553.72 1847 3544.75 1847 3535.78 1847 3528.5 1854.28 3528.5 1863.25 3528.5 1867.74 3532.14 1871.38 3536.63 1871.38 3541.11 1871.38 3544.75 1867.74 3544.75 1863.25Z" fill="#BBBBBB" fill-rule="evenodd"/><path d="M2522 1895.75C2522 1886.78 2529.28 1879.5 2538.25 1879.5L3528.5 1879.5 3528.5 1863.25C3528.5 1854.28 3535.78 1847 3544.75 1847 3553.72 1847 3561 1854.28 3561 1863.25L3561 2058.25C3561 2067.22 3553.72 2074.5 3544.75 2074.5L2554.5 2074.5 2554.5 2090.75C2554.5 2099.72 2547.22 2107 2538.25 2107 2529.28 2107 2522 2099.72 2522 2090.75ZM3528.5 1879.5 3544.75 1879.5C3553.72 1879.5 3561 1872.22 3561 1863.25M3544.75 1879.5 3544.75 1863.25C3544.75 1867.74 3541.11 1871.38 3536.62 1871.38 3532.14 1871.38 3528.5 1867.74 3528.5 1863.25M2538.25 1912 2538.25 1895.75C2538.25 1891.26 2541.89 1887.62 2546.38 1887.62 2550.86 1887.62 2554.5 1891.26 2554.5 1895.75 2554.5 1904.72 2547.23 1912 2538.25 1912 2529.28 1912 2522 1904.72 2522 1895.75M2554.5 1895.75 2554.5 2074.5" stroke="#000000" stroke-width="10.3125" stroke-miterlimit="8" fill="none" fill-rule="evenodd"/><text font-family="Arial,Arial_MSFontService,sans-serif" font-weight="400" font-size="83" transform="matrix(1 0 0 1 2637.36 2007)">PIM Simulation Output</text><rect x="3997" y="1843" width="195" height="520" stroke="#000000" stroke-width="10.3125" stroke-miterlimit="8" fill="none"/><text font-family="Arial,Arial_MSFontService,sans-serif" font-weight="400" font-size="83" transform="matrix(-1.83697e-16 -1 1 -1.83697e-16 4125.4 2351)">LPDDR5 PIM</text><path d="M0-6.875 1299.74-6.875 1299.74 340.999 1292.86 334.124 1394.76 334.124 1394.76 347.874 1285.99 347.874 1285.99 0 1292.86 6.875 0 6.875ZM1387.88 320.374 1429.13 340.999 1387.88 361.624Z" fill="#0070C0" transform="matrix(1 0 0 -1 2303 1173)"/><path d="M4128.88 929 4128.88 959.728 4115.12 959.728 4115.12 929ZM4142.62 952.853 4122 994.103 4101.38 952.853Z" fill="#0070C0"/><path d="M4128.88 1188.99 4128.92 1219.72 4115.17 1219.74 4115.12 1189.01ZM4142.66 1212.82 4122.1 1254.1 4101.41 1212.89Z" fill="#0070C0"/><path d="M4395.4 2106.74C4396.8 2106.74 4397.98 2107.24 4398.92 2108.22 4399.87 2109.21 4400.34 2110.46 4400.34 2111.97 4400.34 2113.49 4399.87 2114.73 4398.92 2115.72 4397.98 2116.71 4396.8 2117.2 4395.4 2117.2 4393.99 2117.2 4392.81 2116.71 4391.87 2115.72 4390.92 2114.73 4390.45 2113.49 4390.45 2111.97 4390.45 2110.46 4390.92 2109.21 4391.87 2108.22 4392.81 2107.24 4393.99 2106.74 4395.4 2106.74ZM4370.84 2106.74C4372.24 2106.74 4373.42 2107.24 4374.36 2108.22 4375.31 2109.21 4375.78 2110.46 4375.78 2111.97 4375.78 2113.49 4375.31 2114.73 4374.36 2115.72 4373.42 2116.71 4372.24 2117.2 4370.84 2117.2 4369.43 2117.2 4368.26 2116.71 4367.31 2115.72 4366.36 2114.73 4365.89 2113.49 4365.89 2111.97 4365.89 2110.46 4366.36 2109.21 4367.31 2108.22 4368.26 2107.24 4369.43 2106.74 4370.84 2106.74ZM4346.28 2106.74C4347.68 2106.74 4348.86 2107.24 4349.8 2108.22 4350.75 2109.21 4351.22 2110.46 4351.22 2111.97 4351.22 2113.49 4350.75 2114.73 4349.8 2115.72 4348.86 2116.71 4347.68 2117.2 4346.28 2117.2 4344.87 2117.2 4343.7 2116.71 4342.75 2115.72 4341.8 2114.73 4341.33 2113.49 4341.33 2111.97 4341.33 2110.46 4341.8 2109.21 4342.75 2108.22 4343.7 2107.24 4344.87 2106.74 4346.28 2106.74Z" fill-rule="evenodd"/><text fill="#000000" fill-opacity="0" font-family="Arial,Arial_MSFontService,sans-serif" font-size="10.4561" x="4341.33" y="2115.89">⋯</text><path d="M3733 1612C3733 1576.1 3907.39 1547 4122.5 1547 4337.62 1547 4512 1576.1 4512 1612 4512 1647.9 4337.62 1677 4122.5 1677 3907.39 1677 3733 1647.9 3733 1612Z" stroke="#000000" stroke-width="10.3125" stroke-miterlimit="8" fill="none" fill-rule="evenodd"/><text font-family="Arial,Arial_MSFontService,sans-serif" font-weight="400" font-size="83" transform="matrix(1 0 0 1 3902.34 1642)">Prerequisite</text><path d="M3733 1742C3733 1706.1 3907.39 1677 4122.5 1677 4337.62 1677 4512 1706.1 4512 1742 4512 1777.9 4337.62 1807 4122.5 1807 3907.39 1807 3733 1777.9 3733 1742Z" stroke="#000000" stroke-width="10.3125" stroke-miterlimit="8" fill="none" fill-rule="evenodd"/><text font-family="Arial,Arial_MSFontService,sans-serif" font-weight="400" font-size="83" transform="matrix(1 0 0 1 3987.14 1772)">Actions</text><path d="M0-6.875 1306.01-6.875 1306.01 912.511 1299.14 905.636 1394.76 905.636 1394.76 919.386 1292.26 919.386 1292.26 0 1299.14 6.875 0 6.875ZM1387.88 891.886 1429.13 912.511 1387.88 933.136Z" fill="#0070C0" transform="matrix(-1 1.22465e-16 1.22465e-16 1 3733.13 1352)"/><path d="M6.91193 34.3676 6.94272 63.0124-6.80728 63.0272-6.83806 34.3824ZM-20.5807 41.2721 0 0 20.6693 41.2278ZM20.6853 56.1226 0.104659 97.3948-20.5647 56.1669Z" fill="#0070C0" transform="matrix(-1 0 0 1 4122.1 1449)"/></g></svg>